<?xml version="1.0" encoding="utf-8"?>
<!-- Generator: Adobe Illustrator 24.0.0, SVG Export Plug-In . SVG Version: 6.00 Build 0)  -->
<svg version="1.1"
	 id="Layer_1" sodipodi:docname="bazar-logo.svg" xmlns:cc="http://creativecommons.org/ns#" xmlns:dc="http://purl.org/dc/elements/1.1/" xmlns:inkscape="http://www.inkscape.org/namespaces/inkscape" xmlns:rdf="http://www.w3.org/1999/02/22-rdf-syntax-ns#" xmlns:sodipodi="http://sodipodi.sourceforge.net/DTD/sodipodi-0.dtd" xmlns:svg="http://www.w3.org/2000/svg"
	 xmlns="http://www.w3.org/2000/svg" xmlns:xlink="http://www.w3.org/1999/xlink" x="0px" y="0px" width="110px" height="39.9px"
	 viewBox="0 0 110 39.9" style="enable-background:new 0 0 110 39.9;" xml:space="preserve">
<style type="text/css">
	.st0{fill:#3C6FB6;}
	.st1{fill:#FF7700;}
	.st2{fill:#FFFFFF;}
</style>
<sodipodi:namedview  bordercolor="#666666" borderopacity="1" fit-margin-bottom="0" fit-margin-left="0" fit-margin-right="0" fit-margin-top="0" gridtolerance="10" guidetolerance="10" id="namedview3732" inkscape:current-layer="Layer_1" inkscape:cx="55.2" inkscape:cy="86.011148" inkscape:pageopacity="0" inkscape:pageshadow="2" inkscape:window-height="993" inkscape:window-maximized="1" inkscape:window-width="1920" inkscape:window-x="0" inkscape:window-y="24" inkscape:zoom="1.712" objecttolerance="10" pagecolor="#ffffff" showgrid="false">
	</sodipodi:namedview>
<path id="path3674" inkscape:connector-curvature="0" class="st0" d="M104.4,28.5c6-3.7,7.3-10.5,3.4-15.6c-2-2.5-5.3-4-8.8-4.5
	s-6-0.7-6.6-0.8c-1.8-0.2-2,0.7-2.2,2.3l-3.4,24c0,0-0.2,1.1,0.5,1.5c0.7,0.5,5.8,0.9,6.8,0.9s1.5-0.5,1.7-1.2
	c0.3-0.7,0.5-3.8,0.5-3.8s0.2-0.6,0.5,0c0.4,0.6,2.5,5,2.9,5.6s1.8,0.6,4.2,0.9c2.4,0.2,4.3,0.5,4.5,0.2c0.3-0.4,0.5-0.9,0.2-1.7
	S104.4,28.5,104.4,28.5z M97.8,23.5c-0.3-0.1-0.2-0.7-0.2-0.7l0.7-5c0,0,0-0.7,0.4-0.6s2.6,0.8,2.5,3.3
	C101.2,21.9,99.6,23.7,97.8,23.5z"/>
<path id="path3676" inkscape:connector-curvature="0" class="st1" d="M63.9,9.2c0.9-1.7,2.1-3.5,3.5-5.1c1.4-1.5,3-2.9,4.5-3.6
	c1.5-0.6,3.3-0.7,5.2-0.3c1.9,0.5,3.8,1.5,5.2,3c1.3-0.5,2.5-0.8,3.9-1.3c0.9,4.5,1.9,9.2,3,14.3c1.2,5.5,2.4,11.3,3.6,17.5
	c0.2,1.5-0.5,2.6-2.4,2.6c-6.5-0.8-12.7-0.8-18.4-0.2c-5.3,0.6-10.2,1.9-14.4,3.7c-1.1,0.3-1.9-0.4-1.6-1.9c0.8-5,1.6-9.7,2.4-14.3
	c0.7-4.4,1.5-8.6,2.1-12.6c0-0.3,0.1-0.5,0.1-0.8c0.3-0.1,0.5-0.2,0.8-0.3C62.2,9.6,63.1,9.4,63.9,9.2L63.9,9.2L63.9,9.2z M77.1,8
	c-1.5,0.5-3.1,1-4.5,1.5c-1.5,0.5-2.9,0.9-4.3,1.4c-0.2,0.1-0.6,0.3-0.8,1c-0.1,0.4-1.2,5.3-2.4,10.4c-1.2,5.3-2.4,10.6-2.4,10.6
	s-0.3,0.9,0.2,1.2s6.7-1.5,6.7-1.5s0.7,0,1-1c0.2-1,0.5-3,0.5-3c1.5-0.3,2.9-0.5,4.4-0.9c0.3,1.1,0.5,2.2,0.8,3.3
	c0,0,0.1,0.7,1.1,0.8c1,0.1,7.6-0.5,7.6-0.5s0.8-0.5,0.6-1.5c-0.2-0.9-2.1-6.5-4-11.9c-1.7-4.9-3.3-9.4-3.3-9.4
	C78.4,7.7,77.9,7.8,77.1,8L77.1,8z M72.1,22.1c0.8-0.2,1.5-0.4,2.4-0.5c-0.5-1.6-0.9-3.2-1.3-4.7C72.8,18.5,72.4,20.3,72.1,22.1
	L72.1,22.1z M77.4,4.7c-1.7-2.3-3.5-3.2-5-2.6c-1.5,0.5-3.1,2.4-4.7,5.7c1.5-0.5,3.1-1,4.7-1.5C74.1,5.8,75.8,5.3,77.4,4.7L77.4,4.7
	z"/>
<path id="path3678" inkscape:connector-curvature="0" class="st2" d="M85.7,29.6c-0.2-0.9-2.1-6.5-4-11.9c-1.7-4.9-3.3-9.4-3.3-9.4
	c0-0.6-0.5-0.5-1.3-0.4c-1.5,0.5-3.1,1-4.5,1.5c-1.5,0.5-2.9,0.9-4.3,1.4c-0.2,0.1-0.6,0.3-0.8,1c-0.1,0.4-1.2,5.3-2.4,10.4
	c-1.2,5.3-2.4,10.6-2.4,10.6s-0.3,0.9,0.2,1.2s6.7-1.5,6.7-1.5s0.7,0,1-1c0.2-1,0.5-3,0.5-3c1.5-0.3,2.9-0.5,4.4-0.9
	c0.3,1.1,0.5,2.2,0.8,3.3c0,0,0.1,0.7,1.1,0.8c1,0.1,7.6-0.5,7.6-0.5S85.9,30.5,85.7,29.6L85.7,29.6z M72.1,22.1
	c0.4-1.8,0.7-3.5,1.1-5.3c0.4,1.5,0.8,3.1,1.3,4.7C73.6,21.7,72.9,21.9,72.1,22.1z"/>
<path id="path3680" inkscape:connector-curvature="0" class="st0" d="M39.5,8.6C39.3,8.1,38.8,7.9,38,8L27.2,7.9c-0.3,0-0.9,0.1-1,1
	c-0.1,0.3-0.6,2.7-1.4,6.1c0.2,1.5,0,3.1-0.7,4.5c-0.2,0.3-0.4,0.5-0.5,0.8l-0.3,1.1c0.8,0.6,1.5,1.5,1.9,2.5c0.8,1.7,1,3.6,0.5,5.5
	c-0.5,2.2-1.8,4.1-3.5,5.5c-0.2,0.2-0.4,0.3-0.6,0.5c2.1,0.2,7,0.2,7,0.2s0.8,0.2,1.1-0.9c0.3-1,0.7-3.9,0.7-3.9h4.8l0.6,4.4
	c0,0,0.1,0.8,1,1c1,0.3,7.5,0.1,7.5,0.1s0.8-0.1,0.7-1.4C45,33.4,39.5,8.6,39.5,8.6z M31.5,23.6l1.4-6l1.3,6.1L31.5,23.6z"/>
<path id="path3682_1_" inkscape:connector-curvature="0" class="st0" d="M20.8-25.7l-0.1-0.6c0,0,1.1-0.9,1.9-2.3
	c1.5-2.7,0.2-7.3-2.8-9.3c-2.1-1.4-4.7-2.1-8.2-1.9C7.6-39.6,5-39.3,1.1-39c0,0-1,0.2-1.1,0.8C0-37.7,0.2-37,0.2-37l2.5,26.4
	c0,0,0.2,0.9,0.8,1c0.7,0.1,8.6-0.8,9.8-1C27.3-12.8,25.7-24,20.8-25.7z M11-27.9c-0.3-0.1-0.3-0.5-0.3-0.5s-0.4-4.1-0.4-4.5
	s0.3-0.4,0.5-0.4c0.5-0.1,1.6-0.2,2.1,0c0.7,0.1,2.2,0.5,2.4,2.4s-1.9,2.5-2.2,2.6C12.8-28,11.3-27.8,11-27.9z M14-17.5
	c-0.3,0.1-1.8,0.4-2.1,0.3s-0.3-0.5-0.3-0.5s-0.4-4.1-0.4-4.5s0.3-0.4,0.5-0.4c0.5,0,1.7-0.1,2.1,0c0.7,0.1,2.2,0.5,2.4,2.4
	C16.4-18.2,14.3-17.6,14-17.5z"/>
<path id="path3682" inkscape:connector-curvature="0" class="st0" d="M20.8,21.7l-0.1-0.6c0,0,1.1-0.9,1.9-2.3
	c1.5-2.7,0.2-7.3-2.8-9.3c-2.1-1.4-4.7-2.1-8.2-1.9C7.6,7.8,5,8.1,1.1,8.4c0,0-1,0.2-1.1,0.8c0,0.5,0.2,1.2,0.2,1.2l2.5,26.4
	c0,0,0.2,0.9,0.8,1c0.7,0.1,8.6-0.8,9.8-1C27.3,34.6,25.7,23.4,20.8,21.7z M11,19.5c-0.3-0.1-0.3-0.5-0.3-0.5s-0.4-4.1-0.4-4.5
	s0.3-0.4,0.5-0.4c0.5-0.1,1.6-0.2,2.1,0c0.7,0.1,2.2,0.5,2.4,2.4s-1.9,2.5-2.2,2.6C12.8,19.4,11.3,19.6,11,19.5z M14,29.9
	c-0.3,0.1-1.8,0.4-2.1,0.3s-0.3-0.5-0.3-0.5s-0.4-4.1-0.4-4.5s0.3-0.4,0.5-0.4c0.5,0,1.7-0.1,2.1,0c0.7,0.1,2.2,0.5,2.4,2.4
	C16.4,29.2,14.3,29.8,14,29.9z"/>
<path id="path3724" inkscape:connector-curvature="0" class="st0" d="M63,9.7c-6.7-0.6-13.4-1.5-19.5-2.3c0,0-1.2-0.4-1.5,0.5
	c-0.1,0.3-0.2,1.3-0.4,2.4c0.3,1.3,0.7,3.3,1.2,5.6c2.6,0.5,8.4,1.1,8.4,1.1s0.6,0.5-0.2,1s-0.1,0-0.1,0l-6.6,4.7
	c1.2,5.8,2.4,11.2,2.4,11.8c0,0.2,0,0.4,0,0.6c5.9,0.8,12.9,1.6,12.9,1.6s1,0.3,1.1-0.6c0.1-0.9,0.8-6.7,0.8-6.7s0.3-0.8-1-1
	s-9.2-1.1-9.2-1.1s-0.5-0.2,0-0.5s11.2-8.2,11.2-8.2s0.3-0.1,0.4-0.7c0.1-0.5,0.9-7.4,0.9-7.4S63.8,9.8,63,9.7z"/>
<path id="path3726" inkscape:connector-curvature="0" class="st1" d="M56.2,36.9c0.5,0,4.5,0.6,4.6-0.2c0.2-0.8,1.2-8,1.2-8
	s-1.4-0.4-2.6-0.5c-1.3-0.1-0.9-0.1-1.6-0.1L56.2,36.9L56.2,36.9z"/>
</svg>
